
<svg version="1.0" xmlns="http://www.w3.org/2000/svg"
 width="1500.000000pt" height="1500.000000pt" viewBox="0 0 1500.000000 1500.000000"
 preserveAspectRatio="xMidYMid meet">

<g transform="translate(0.000000,1500.000000) scale(0.100000,-0.100000)"
fill="#FFFFFF" stroke="none">
<path d="M3780 13030 l0 -270 -460 0 -460 0 0 -40 0 -40 239 0 c264 0 350 -11
450 -55 133 -60 175 -148 213 -440 16 -127 24 -6302 8 -6630 -24 -499 -84
-694 -240 -779 -96 -52 -127 -56 -478 -56 l-323 0 3 -33 3 -32 523 -3 522 -2
0 -250 0 -250 35 0 35 0 0 250 0 250 4030 0 4030 0 0 -250 0 -250 40 0 40 0 0
250 0 250 130 0 130 0 0 35 0 35 -130 0 -130 0 0 3980 0 3980 188 2 187 3 3
38 3 37 -190 0 -191 0 0 270 0 270 -40 0 -40 0 0 -270 0 -270 -4030 0 -4030 0
0 270 0 270 -35 0 -35 0 0 -270z m8130 -2037 c0 -927 -2 -1684 -4 -1682 -2 2
-11 67 -21 144 -51 432 -164 815 -355 1200 -190 381 -382 651 -664 930 -567
561 -1347 925 -2286 1065 -80 12 -147 24 -149 26 -2 2 779 4 1737 4 l1742 0 0
-1687z m-5385 1587 c217 -14 460 -37 635 -61 157 -21 421 -66 445 -75 13 -5
15 -217 15 -1870 l0 -1864 -1460 0 -1460 0 0 1940 0 1940 833 0 c458 0 904 -5
992 -10z m1380 -205 c644 -162 1196 -426 1655 -791 161 -129 456 -421 598
-594 535 -650 819 -1359 868 -2162 l7 -118 -1677 0 -1676 0 0 1860 0 1860 28
-6 c15 -4 104 -26 197 -49z m-285 -5604 l0 -1879 -22 -5 c-74 -18 -456 -29
-830 -24 -501 6 -739 28 -1045 92 -166 35 -167 41 -7 48 109 4 158 11 227 31
171 51 306 134 428 264 141 151 228 339 251 544 51 452 -252 891 -697 1009
-120 32 -303 37 -425 11 -185 -38 -345 -125 -481 -261 -166 -165 -257 -369
-275 -615 -5 -66 -9 -84 -16 -67 -20 56 -28 457 -28 1554 l0 1177 1460 0 1460
0 0 -1879z m3410 1742 c-1 -840 -309 -1688 -885 -2439 -490 -636 -1234 -1017
-2255 -1154 -85 -11 -167 -22 -182 -25 l-28 -4 0 1879 0 1880 1675 0 1675 0 0
-137z m880 -1858 l0 -1935 -1690 0 c-963 0 -1690 4 -1690 9 0 5 37 14 83 21
647 97 1151 323 1663 747 490 405 892 923 1180 1518 241 499 380 977 439 1518
4 31 8 57 11 57 2 0 4 -871 4 -1935z m-6025 110 c164 -42 281 -109 401 -229
96 -96 147 -173 194 -291 43 -109 55 -177 54 -320 -1 -110 -5 -144 -28 -220
-111 -372 -435 -615 -817 -615 -231 0 -426 78 -592 239 -245 236 -324 594
-202 916 104 276 367 488 668 536 72 11 250 3 322 -16z"/>
<path d="M4753 3540 c-136 -27 -222 -134 -223 -276 0 -134 65 -217 218 -274
210 -80 254 -104 288 -155 26 -39 34 -94 22 -149 -14 -67 -82 -136 -153 -157
-76 -21 -209 -17 -270 10 -85 38 -111 74 -131 181 -12 64 -12 63 -13 -83 l-1
-149 208 5 c119 2 223 9 244 16 49 15 118 84 148 146 18 38 24 67 24 120 1 94
-16 137 -79 200 -55 54 -53 53 -282 139 -135 51 -178 99 -177 196 1 66 19 104
73 153 49 44 106 61 186 54 75 -5 116 -25 178 -86 l48 -46 -23 63 c-12 35 -30
67 -38 72 -16 9 -160 31 -188 29 -9 -1 -36 -5 -59 -9z"/>
<path d="M5254 3516 c9 -21 16 -41 16 -44 0 -4 7 4 16 16 15 21 21 22 170 22
l154 0 0 -488 c0 -514 0 -514 -45 -525 -11 -3 34 -5 100 -5 66 0 113 2 105 5
-40 14 -40 20 -40 525 l0 488 154 0 c149 0 155 -1 170 -22 9 -12 16 -20 16
-16 0 3 7 22 15 42 15 36 15 37 -4 27 -30 -17 -813 -15 -830 2 -9 8 -8 0 3
-27z"/>
<path d="M8425 3540 c-135 -19 -253 -79 -344 -175 -194 -207 -199 -532 -12
-736 59 -66 119 -100 226 -131 118 -33 356 -33 508 1 106 23 109 25 136 65 45
67 45 69 -3 33 -58 -45 -138 -75 -251 -95 -253 -43 -477 67 -584 290 -115 240
-101 435 44 587 63 66 126 104 210 126 67 17 208 19 274 4 60 -13 144 -56 190
-96 22 -18 41 -33 44 -33 7 0 -27 88 -39 99 -5 5 -45 20 -90 34 -92 29 -218
40 -309 27z"/>
<path d="M9098 3512 c15 -37 17 -37 34 -20 17 17 34 18 171 16 l152 -3 0 -486
c0 -518 0 -513 -48 -522 -12 -2 32 -4 98 -4 66 -1 112 1 102 4 -10 3 -22 16
-28 29 -5 15 -9 229 -9 505 l0 480 157 -3 c151 -3 158 -4 168 -25 12 -24 10
-26 44 62 2 6 -2 4 -10 -2 -17 -16 -800 -19 -829 -3 -18 9 -18 8 -2 -28z"/>
<path d="M2783 3523 c15 -2 32 -13 37 -24 7 -12 10 -184 8 -500 -3 -463 -4
-481 -22 -495 -17 -12 19 -14 285 -14 167 0 333 5 368 11 97 15 166 53 247
133 260 259 223 675 -75 825 -116 59 -152 64 -531 66 -190 2 -333 1 -317 -2z
m564 -33 c112 -27 195 -71 269 -142 111 -106 161 -233 151 -387 -6 -101 -31
-174 -89 -261 -93 -140 -244 -198 -489 -188 -86 4 -115 9 -155 29 -86 42 -84
28 -84 530 0 240 3 439 8 444 13 14 303 -4 389 -25z"/>
<path d="M4083 3523 c51 -8 52 -15 55 -479 2 -237 -1 -453 -5 -480 -6 -37 -14
-52 -33 -61 -21 -11 -8 -13 90 -12 63 0 108 3 100 6 -39 14 -40 21 -40 512 0
262 4 482 9 489 5 8 24 18 42 22 22 5 -16 8 -106 7 -77 0 -128 -2 -112 -4z"/>
<path d="M6263 3523 c51 -8 52 -16 55 -458 2 -225 -1 -441 -5 -480 -7 -60 -11
-71 -33 -82 -22 -11 -9 -13 90 -12 63 0 108 3 100 6 -39 14 -40 21 -40 512 0
262 4 482 9 489 5 8 24 18 42 22 22 5 -16 8 -106 7 -77 0 -128 -2 -112 -4z"/>
<path d="M6680 3521 c108 -22 110 -30 110 -561 0 -440 -1 -449 -40 -463 -8 -3
23 -5 70 -5 47 0 75 3 63 5 -52 10 -53 15 -53 456 0 225 4 407 8 405 5 -1 193
-199 418 -439 l409 -437 5 503 c5 541 4 530 58 538 15 2 -18 4 -73 4 -55 0
-90 -2 -78 -4 52 -10 53 -17 53 -436 0 -214 -4 -387 -8 -385 -5 2 -183 189
-396 416 l-387 412 -97 -1 c-66 -1 -86 -4 -62 -8z"/>
<path d="M10102 3523 c54 -8 53 2 53 -515 l0 -480 -24 -19 c-23 -19 -23 -19
85 -19 87 1 105 3 89 12 -11 6 -23 16 -27 22 -4 6 -8 225 -8 487 0 441 1 477
18 492 9 8 28 17 42 20 14 2 -38 4 -115 4 -77 0 -128 -2 -113 -4z"/>
<path d="M10505 3523 c28 -7 54 -32 75 -73 14 -27 347 -843 392 -960 7 -20 11
-22 18 -10 5 8 96 230 201 493 105 262 201 492 213 509 12 18 32 35 46 39 15
4 -7 7 -55 7 -57 1 -74 -2 -57 -8 12 -5 22 -14 22 -20 0 -9 -247 -631 -316
-795 l-16 -40 -17 35 c-10 19 -87 208 -172 419 -147 368 -153 384 -134 397 16
12 4 14 -101 13 -65 -1 -110 -4 -99 -6z"/>
<path d="M11640 3521 c49 -14 50 -24 50 -511 0 -250 -3 -465 -6 -477 -3 -12
-18 -26 -33 -32 -18 -6 85 -10 322 -10 l347 -1 -1 53 c0 37 -3 46 -8 32 -5
-11 -19 -29 -31 -40 -21 -19 -36 -20 -221 -20 -188 0 -200 1 -219 21 -32 32
-40 83 -40 282 l0 182 195 0 c174 0 195 -2 204 -17 8 -14 10 -7 10 32 0 39 -2
46 -10 33 -9 -16 -30 -18 -205 -18 l-194 0 2 233 3 232 194 3 c221 3 229 0
254 -70 l15 -43 1 73 1 72 -327 -1 c-181 -1 -317 -4 -303 -8z"/>
<path d="M4070 1959 c-51 -129 -97 -240 -103 -246 -6 -9 -5 -13 4 -13 9 0 43
74 90 196 41 108 79 196 83 197 5 1 21 -32 38 -73 16 -41 35 -88 43 -105 29
-65 75 -186 75 -200 0 -10 11 -15 35 -15 l36 0 -15 28 c-8 16 -51 120 -96 233
-45 112 -85 210 -90 218 -4 9 -41 -71 -100 -220z"/>
<path d="M5185 2180 c-3 -5 -1 -10 4 -10 6 0 11 5 11 10 0 6 -2 10 -4 10 -3 0
-8 -4 -11 -10z"/>
<path d="M6203 2160 c-185 -93 -190 -317 -10 -420 29 -16 63 -29 77 -29 21 1
19 2 -10 11 -50 14 -97 53 -122 101 -35 65 -32 175 7 245 31 57 66 87 124 108
24 9 29 13 15 14 -11 0 -48 -14 -81 -30z"/>
<path d="M6368 2183 c6 -2 18 -2 25 0 6 3 1 5 -13 5 -14 0 -19 -2 -12 -5z"/>
<path d="M6957 2170 c-34 -27 -42 -69 -23 -115 9 -21 16 -39 16 -40 0 -1 -13
-8 -29 -15 -16 -6 -42 -25 -57 -41 -26 -27 -29 -38 -29 -92 0 -74 25 -116 86
-148 74 -37 215 -23 271 28 16 14 20 13 53 -16 30 -26 43 -31 88 -31 l52 1
-39 14 c-21 7 -53 28 -72 46 -32 31 -32 33 -18 60 19 37 18 52 -2 17 -8 -16
-18 -28 -23 -28 -17 0 -270 268 -276 293 -9 35 1 62 28 75 12 6 17 11 11 11
-6 1 -23 -8 -37 -19z m122 -280 c138 -132 138 -134 55 -166 -172 -65 -372 183
-215 266 20 11 36 19 36 19 0 0 56 -53 124 -119z"/>
<path d="M7053 2180 c16 -5 44 -20 63 -35 l34 -26 -11 25 c-12 26 -55 47 -93
45 -17 -1 -15 -2 7 -9z"/>
<path d="M8798 2174 c-37 -20 -58 -63 -58 -119 0 -61 31 -92 126 -129 39 -14
82 -38 95 -52 47 -50 18 -132 -55 -153 -31 -9 -31 -9 -4 -10 58 -2 117 84 103
149 -11 52 -50 86 -134 120 -93 37 -115 58 -115 107 0 78 104 120 182 73 34
-21 43 -13 16 14 -20 21 -119 21 -156 0z"/>
<path d="M9508 2183 c6 -2 18 -2 25 0 6 3 1 5 -13 5 -14 0 -19 -2 -12 -5z"/>
<path d="M9615 2181 c36 -9 73 -28 98 -49 17 -15 17 -14 9 9 -10 25 -63 48
-112 47 -22 0 -22 -1 5 -7z"/>
<path d="M11958 2183 c7 -3 16 -2 19 1 4 3 -2 6 -13 5 -11 0 -14 -3 -6 -6z"/>
<path d="M12075 2177 c22 -7 53 -22 68 -31 15 -11 27 -14 27 -7 0 18 -43 40
-90 46 l-45 5 40 -13z"/>
<path d="M2820 1956 c0 -123 -3 -231 -6 -240 -5 -14 9 -16 127 -14 118 1 125
2 59 8 -92 8 -117 20 -125 63 -3 17 -5 116 -3 220 l3 187 -27 0 -28 0 0 -224z"/>
<path d="M3047 2170 c95 -19 182 -94 204 -174 15 -56 5 -130 -26 -182 -28 -48
-55 -69 -113 -90 -35 -12 -35 -13 -9 -14 36 0 95 30 128 67 98 105 100 257 4
341 -50 44 -106 63 -182 61 l-48 -1 42 -8z"/>
<path d="M3428 1954 c2 -162 0 -230 -9 -240 -9 -12 -5 -14 27 -14 l39 0 -2
122 c-1 68 -2 176 -3 241 l0 117 -27 0 -28 0 3 -226z"/>
<path d="M3587 2165 c65 -28 86 -139 37 -189 -15 -14 -35 -26 -45 -26 -11 0
-19 -2 -19 -5 0 -12 115 -173 148 -207 34 -36 39 -38 97 -37 59 1 59 1 21 10
-22 5 -48 17 -59 26 -22 20 -107 135 -132 179 l-18 32 36 35 c83 83 46 198
-63 197 l-35 -1 32 -14z"/>
<path d="M4498 1961 c2 -147 0 -227 -8 -240 -10 -20 -8 -21 27 -21 l38 0 -3
120 -3 120 90 0 c50 0 91 3 91 8 0 4 -40 6 -90 4 l-90 -3 0 115 0 116 -27 0
-28 0 3 -219z"/>
<path d="M4730 2176 c0 -2 7 -6 15 -10 8 -3 15 -1 15 4 0 6 -7 10 -15 10 -8 0
-15 -2 -15 -4z"/>
<path d="M4978 1940 l-3 -240 37 0 c36 0 37 1 27 28 -6 17 -9 119 -7 240 l3
212 -27 0 -27 0 -3 -240z"/>
<path d="M5308 1940 l-3 -240 39 0 c32 0 36 2 27 14 -8 10 -11 79 -9 240 l3
226 -27 0 -27 0 -3 -240z"/>
<path d="M5520 2160 c7 -13 10 -97 8 -240 -3 -190 -1 -220 12 -220 13 0 15 28
12 207 l-2 208 127 -135 c70 -74 158 -166 195 -205 l67 -70 3 238 c2 182 0
237 -9 237 -9 0 -13 -48 -15 -189 l-3 -190 -178 190 c-138 145 -184 189 -203
189 -22 0 -23 -3 -14 -20z"/>
<path d="M6445 2157 c42 -25 59 -26 34 -2 -8 7 -27 17 -44 20 -28 6 -28 5 10
-18z"/>
<path d="M7758 1969 c2 -126 -1 -222 -7 -240 l-10 -29 132 2 c119 1 124 2 55
7 -122 11 -118 2 -118 258 l0 213 -27 0 -28 0 3 -211z"/>
<path d="M7975 2170 c96 -20 144 -52 185 -123 70 -121 14 -281 -111 -323 l-44
-14 43 4 c101 10 191 125 191 246 1 58 -37 140 -77 169 -47 33 -109 51 -171
50 -56 -1 -56 -1 -16 -9z"/>
<path d="M8355 1940 l0 -240 148 0 c132 0 147 2 147 17 0 13 -3 14 -12 5 -8
-8 -46 -12 -104 -12 -122 0 -124 2 -124 131 l0 99 95 0 c52 0 95 3 95 8 0 4
-43 6 -95 4 l-95 -3 0 115 0 116 -27 0 -28 0 0 -240z"/>
<path d="M8611 2163 c7 -10 15 -20 16 -22 2 -2 3 5 3 17 0 14 -6 22 -16 22
-14 0 -15 -3 -3 -17z"/>
<path d="M9115 1940 l0 -240 30 0 30 0 0 240 0 240 -30 0 -30 0 0 -240z"/>
<path d="M9435 2163 c-154 -80 -185 -262 -67 -381 38 -37 105 -72 137 -71 15
1 14 3 -7 9 -47 14 -88 44 -115 84 -22 30 -28 53 -31 108 -3 38 1 89 8 112 14
50 59 110 104 137 37 23 13 25 -29 2z"/>
<path d="M9880 2160 c7 -13 10 -97 8 -240 -3 -190 -1 -220 12 -220 13 0 15 28
12 207 l-3 207 113 -119 c62 -66 149 -158 195 -205 l82 -85 3 238 c2 182 0
237 -9 237 -9 0 -13 -48 -15 -191 l-3 -190 -179 190 c-136 145 -184 191 -203
191 -21 0 -22 -3 -13 -20z"/>
<path d="M10665 1940 l0 -240 148 0 147 0 0 30 0 29 -25 -24 c-21 -22 -33 -25
-93 -25 -55 0 -75 4 -96 21 l-27 21 3 214 3 214 -30 0 -30 0 0 -240z"/>
<path d="M11215 1940 l0 -240 148 0 147 0 0 30 0 29 -25 -24 c-21 -22 -33 -25
-93 -25 -55 0 -75 4 -96 21 l-27 21 3 214 3 214 -30 0 -30 0 0 -240z"/>
<path d="M11865 2151 c-39 -23 -81 -73 -101 -120 -19 -43 -21 -144 -4 -186 31
-81 123 -145 205 -144 l40 0 -44 14 c-95 30 -173 148 -174 265 0 67 19 106 75
154 47 40 47 45 3 17z"/>
<path d="M7274 1994 c3 -9 6 -30 6 -46 0 -41 6 -33 14 20 5 35 3 42 -10 42
-11 0 -14 -5 -10 -16z"/>
<path d="M7271 1894 c0 -11 3 -14 6 -6 3 7 2 16 -1 19 -3 4 -6 -2 -5 -13z"/>
<path d="M6448 1802 c5 -83 -1 -90 -88 -95 -47 -2 -36 -4 40 -5 l105 -2 0 85
0 85 -30 0 -31 0 4 -68z"/>
<path d="M9678 1795 c4 -85 7 -82 -98 -88 -30 -2 -8 -4 50 -5 l106 -2 -4 70
c-3 46 0 75 8 85 11 13 7 15 -26 15 l-39 0 3 -75z"/>
<path d="M8721 1748 l-1 -48 78 1 77 1 -52 12 c-57 14 -81 29 -93 61 -7 15 -9
8 -9 -27z"/>
<path d="M11062 1751 c-23 -14 -10 -46 21 -49 26 -3 28 -1 25 25 -3 29 -23 39
-46 24z"/>
<path d="M11602 1743 c-13 -26 -4 -43 24 -43 29 0 41 24 24 45 -17 20 -37 19
-48 -2z"/>
<path d="M12314 1746 c-10 -26 4 -48 28 -44 17 2 23 10 23 28 0 18 -6 26 -23
28 -13 2 -25 -3 -28 -12z"/>
<path d="M12175 1729 c-29 -13 -34 -19 -19 -19 12 0 32 9 45 20 29 24 25 24
-26 -1z"/>
<path d="M12098 1703 c6 -2 18 -2 25 0 6 3 1 5 -13 5 -14 0 -19 -2 -12 -5z"/>
<path d="M12018 1693 c6 -2 18 -2 25 0 6 3 1 5 -13 5 -14 0 -19 -2 -12 -5z"/>
</g>
</svg>
