
<svg version="1.0" xmlns="http://www.w3.org/2000/svg"
 width="1500.000000pt" height="1500.000000pt" viewBox="0 0 1500.000000 1500.000000"
 preserveAspectRatio="xMidYMid meet">

<g transform="translate(0.000000,1500.000000) scale(0.100000,-0.100000)"
fill="#FFFFFF" stroke="none">
<path d="M3780 13030 l0 -270 -460 0 -460 0 0 -40 0 -40 239 0 c264 0 350 -11
450 -55 133 -60 175 -148 213 -440 16 -127 24 -6302 8 -6630 -24 -499 -84
-694 -240 -779 -96 -52 -127 -56 -478 -56 l-323 0 3 -33 3 -32 523 -3 522 -2
0 -250 0 -250 35 0 35 0 0 250 0 250 4030 0 4030 0 0 -250 0 -250 40 0 40 0 0
250 0 250 130 0 130 0 0 35 0 35 -130 0 -130 0 0 3980 0 3980 188 2 187 3 3
38 3 37 -190 0 -191 0 0 270 0 270 -40 0 -40 0 0 -270 0 -270 -4030 0 -4030 0
0 270 0 270 -35 0 -35 0 0 -270z m8130 -2037 c0 -927 -2 -1684 -4 -1682 -2 2
-11 67 -21 144 -51 432 -164 815 -355 1200 -190 381 -382 651 -664 930 -567
561 -1347 925 -2286 1065 -80 12 -147 24 -149 26 -2 2 779 4 1737 4 l1742 0 0
-1687z m-5385 1587 c217 -14 460 -37 635 -61 157 -21 421 -66 445 -75 13 -5
15 -217 15 -1870 l0 -1864 -1460 0 -1460 0 0 1940 0 1940 833 0 c458 0 904 -5
992 -10z m1380 -205 c644 -162 1196 -426 1655 -791 161 -129 456 -421 598
-594 535 -650 819 -1359 868 -2162 l7 -118 -1677 0 -1676 0 0 1860 0 1860 28
-6 c15 -4 104 -26 197 -49z m-285 -5604 l0 -1879 -22 -5 c-74 -18 -456 -29
-830 -24 -501 6 -739 28 -1045 92 -166 35 -167 41 -7 48 109 4 158 11 227 31
171 51 306 134 428 264 141 151 228 339 251 544 51 452 -252 891 -697 1009
-120 32 -303 37 -425 11 -185 -38 -345 -125 -481 -261 -166 -165 -257 -369
-275 -615 -5 -66 -9 -84 -16 -67 -20 56 -28 457 -28 1554 l0 1177 1460 0 1460
0 0 -1879z m3410 1742 c-1 -840 -309 -1688 -885 -2439 -490 -636 -1234 -1017
-2255 -1154 -85 -11 -167 -22 -182 -25 l-28 -4 0 1879 0 1880 1675 0 1675 0 0
-137z m880 -1858 l0 -1935 -1690 0 c-963 0 -1690 4 -1690 9 0 5 37 14 83 21
647 97 1151 323 1663 747 490 405 892 923 1180 1518 241 499 380 977 439 1518
4 31 8 57 11 57 2 0 4 -871 4 -1935z m-6025 110 c164 -42 281 -109 401 -229
96 -96 147 -173 194 -291 43 -109 55 -177 54 -320 -1 -110 -5 -144 -28 -220
-111 -372 -435 -615 -817 -615 -231 0 -426 78 -592 239 -245 236 -324 594
-202 916 104 276 367 488 668 536 72 11 250 3 322 -16z"/>
</g>
</svg>
